<?xml version="1.0" standalone="no"?><!DOCTYPE svg PUBLIC "-//W3C//DTD SVG 1.1//EN" "http://www.w3.org/Graphics/SVG/1.1/DTD/svg11.dtd"><svg t="1574060925071" class="icon" viewBox="0 0 1024 1024" version="1.1" xmlns="http://www.w3.org/2000/svg" p-id="19453" xmlns:xlink="http://www.w3.org/1999/xlink" width="64" height="64"><defs><style type="text/css"></style></defs><path fill="#000000" d="M512 0C230.4 0 0 230.4 0 512s230.4 512 512 512 512-230.4 512-512-230.4-512-512-512z m384 512c0 83.2-25.6 160-70.4 224L288 198.4C352 153.6 428.8 128 512 128c211.2 0 384 172.8 384 384zM128 512c0-83.2 25.6-160 70.4-224l537.6 537.6c-64 44.8-140.8 70.4-224 70.4-211.2 0-384-172.8-384-384z" p-id="19454"></path></svg>